solid redo
facet normal 8.58699631400136e-18 -0.7071050834939866 0.7071084788750326
  outer loop
    vertex -1.0000001192092896 229.1222809082031 3.0
    vertex -3.400000095367431 229.71810610351557 3.595822334289551
    vertex -3.400000095367431 229.1222809082031 3.0
  endloop
endfacet
facet normal 8.58699631400136e-18 -0.7071050834939866 0.7071084788750326
  outer loop
    vertex -3.400000095367431 229.71810610351557 3.595822334289551
    vertex -1.0000001192092896 229.1222809082031 3.0
    vertex -1.0000001192092896 229.71810610351557 3.595822334289551
  endloop
endfacet
facet normal 0.9999999999999996 -2.2652973901388714e-09 2.9161940011844205e-08
  outer loop
    vertex -1.000000063911899 233.11809999944668 2.999999998396644
    vertex -1.0000001192092896 229.71810610351557 3.595822334289551
    vertex -1.0000001192092896 229.1222809082031 3.0
  endloop
endfacet
facet normal 0.9999999999999996 -2.2652973901388714e-09 2.9161940011844205e-08
  outer loop
    vertex -1.0000001192092896 229.71810610351557 3.595822334289551
    vertex -1.000000063911899 233.11809999944668 2.999999998396644
    vertex -1.0000001192092896 233.71810610351562 3.595822334289551
  endloop
endfacet
facet normal 0.9999999999999996 -2.2652973901388714e-09 2.9161940011844205e-08
  outer loop
    vertex -1.0000001192092896 233.71810610351562 3.595822334289551
    vertex -1.000000063911899 233.11809999944668 2.999999998396644
    vertex -1.0000001192092896 234.31392366943356 3.0
  endloop
endfacet
facet normal 0.0 0.0 1.0
  outer loop
    vertex -1.0000001192092896 229.71810610351557 3.595822334289551
    vertex -3.400000095367431 233.71810610351562 3.595822334289551
    vertex -3.400000095367431 229.71810610351557 3.595822334289551
  endloop
endfacet
facet normal 0.0 0.0 1.0
  outer loop
    vertex -3.400000095367431 233.71810610351562 3.595822334289551
    vertex -1.0000001192092896 229.71810610351557 3.595822334289551
    vertex -1.0000001192092896 233.71810610351562 3.595822334289551
  endloop
endfacet
facet normal -2.9515702650538147e-30 0.7071096106832409 0.7071039516785319
  outer loop
    vertex -3.400000095367431 233.71810610351562 3.595822334289551
    vertex -1.0000001192092896 234.31392366943356 3.0
    vertex -3.400000095367431 234.31392366943356 3.0
  endloop
endfacet
facet normal -2.9515702650538147e-30 0.7071096106832409 0.7071039516785319
  outer loop
    vertex -1.0000001192092896 234.31392366943356 3.0
    vertex -3.400000095367431 233.71810610351562 3.595822334289551
    vertex -1.0000001192092896 233.71810610351562 3.595822334289551
  endloop
endfacet
facet normal -1.0 0.0 0.0
  outer loop
    vertex -3.400000095367431 229.71810610351557 3.595822334289551
    vertex -3.400000095367431 234.31392366943356 3.0
    vertex -3.400000095367431 229.1222809082031 3.0
  endloop
endfacet
facet normal -1.0 0.0 0.0
  outer loop
    vertex -3.400000095367431 234.31392366943356 3.0
    vertex -3.400000095367431 229.71810610351557 3.595822334289551
    vertex -3.400000095367431 233.71810610351562 3.595822334289551
  endloop
endfacet
facet normal -0.8660254454851181 1.6603409525029093e-10 -0.4999999277722975
  outer loop
    vertex -7.98149538040161 257.11809999999997 1.9000000953674316
    vertex -6.884530067443848 227.11809999999997 6.326817469926027e-08
    vertex -7.98149538040161 227.11809999999997 1.9000000953674316
  endloop
endfacet
facet normal -0.8660254454851181 1.6603409525029093e-10 -0.4999999277722975
  outer loop
    vertex -6.884530067443848 227.11809999999997 6.326817469926027e-08
    vertex -7.98149538040161 257.11809999999997 1.9000000953674316
    vertex -6.884530067443848 257.11809999999997 8.319226907360643e-08
  endloop
endfacet
facet normal 0.8660254270275235 -1.986821336801531e-09 0.4999999597417942
  outer loop
    vertex -4.022649765014648 234.31392366943356 2.999999999845712
    vertex -4.484529972076416 227.11809999999997 3.7999999523162837
    vertex -4.022649765014648 227.11809999999997 3.0
  endloop
endfacet
facet normal 0.8660254270275235 -1.986821336801531e-09 0.4999999597417942
  outer loop
    vertex -4.484529972076416 227.11809999999997 3.7999999523162837
    vertex -4.022649765014648 234.31392366943356 2.999999999845712
    vertex -4.484529972076416 257.11809999999997 3.8000001907348633
  endloop
endfacet
facet normal 0.8660254270275235 -1.986821336801531e-09 0.4999999597417942
  outer loop
    vertex -4.484529972076416 257.11809999999997 3.8000001907348633
    vertex -4.022649765014648 234.31392366943356 2.999999999845712
    vertex -4.022649765014648 249.10300017434358 2.99999999905723
  endloop
endfacet
facet normal 0.8660254270275235 -1.986821336801531e-09 0.4999999597417942
  outer loop
    vertex -4.484529972076416 257.11809999999997 3.8000001907348633
    vertex -4.022649765014648 249.10300017434358 2.99999999905723
    vertex -4.022649765014648 257.11809999999997 3.0
  endloop
endfacet
facet normal -2.1943920045298878e-38 -7.94728598744557e-09 1.0
  outer loop
    vertex -4.484529972076416 227.11809999999997 3.7999999523162837
    vertex -6.884530067443848 257.11809999999997 3.8000001907348633
    vertex -6.884530067443848 227.11809999999997 3.7999999523162837
  endloop
endfacet
facet normal -2.1943920045298878e-38 -7.94728598744557e-09 1.0
  outer loop
    vertex -6.884530067443848 257.11809999999997 3.8000001907348633
    vertex -4.484529972076416 227.11809999999997 3.7999999523162837
    vertex -4.484529972076416 257.11809999999997 3.8000001907348633
  endloop
endfacet
facet normal -0.8660254402457727 -1.986821245992837e-09 0.49999993684711164
  outer loop
    vertex -6.884530067443848 257.11809999999997 3.8000001907348633
    vertex -7.98149538040161 227.11809999999997 1.9000000953674316
    vertex -6.884530067443848 227.11809999999997 3.7999999523162837
  endloop
endfacet
facet normal -0.8660254402457727 -1.986821245992837e-09 0.49999993684711164
  outer loop
    vertex -7.98149538040161 227.11809999999997 1.9000000953674316
    vertex -6.884530067443848 257.11809999999997 3.8000001907348633
    vertex -7.98149538040161 257.11809999999997 1.9000000953674316
  endloop
endfacet
facet normal 1.0 -2.261850089741549e-10 6.333798735626589e-09
  outer loop
    vertex -1.0000000610942135 233.11809999944668 7.344408183483442e-08
    vertex -1.000000119110705 234.31392366928534 0.39999999999999963
    vertex -1.000000063911899 233.11809999944668 2.999999998396644
  endloop
endfacet
facet normal 1.0 -2.261850089741549e-10 6.333798735626589e-09
  outer loop
    vertex -1.000000119110705 234.31392366928534 0.39999999999999963
    vertex -1.0000000610942135 233.11809999944668 7.344408183483442e-08
    vertex -1.0000000710563017 251.11809999944663 8.34060713397755e-08
  endloop
endfacet
facet normal 1.0 -2.261850089741549e-10 6.333798735626589e-09
  outer loop
    vertex -1.000000119110705 234.31392366928534 0.39999999999999963
    vertex -1.0000000710563017 251.11809999944663 8.34060713397755e-08
    vertex -1.0000000737753745 251.1180999992984 0.3999999990607756
  endloop
endfacet
facet normal 1.0 -2.261850089741549e-10 6.333798735626589e-09
  outer loop
    vertex -1.0000001192092896 234.31392366943356 3.0
    vertex -1.000000063911899 233.11809999944668 2.999999998396644
    vertex -1.000000119110705 234.31392366928534 0.39999999999999963
  endloop
endfacet
facet normal 4.643050246262423e-09 -2.8861767205379382e-09 1.0
  outer loop
    vertex 1.99999988079071 253.11809999999997 3.0
    vertex 0.9918599823576273 257.35415315506185 3.000000016906842
    vertex -8.965850021818472e-08 257.11809999999997 3.000000020830807
  endloop
endfacet
facet normal 0.0 1.0 0.0
  outer loop
    vertex -6.884530067443848 257.11809999999997 3.8000001907348633
    vertex -4.022649765014648 257.11809999999997 3.0
    vertex -7.98149538040161 257.11809999999997 1.9000000953674316
  endloop
endfacet
facet normal 0.0 1.0 0.0
  outer loop
    vertex -4.022649765014648 257.11809999999997 3.0
    vertex -6.884530067443848 257.11809999999997 3.8000001907348633
    vertex -4.484529972076416 257.11809999999997 3.8000001907348633
  endloop
endfacet
facet normal 0.0 1.0 0.0
  outer loop
    vertex -7.98149538040161 257.11809999999997 1.9000000953674316
    vertex -8.96585010560066e-08 257.11809999999997 8.899727209883275e-08
    vertex -6.884530067443848 257.11809999999997 8.319226907360643e-08
  endloop
endfacet
facet normal 0.0 1.0 0.0
  outer loop
    vertex -8.96585010560066e-08 257.11809999999997 8.899727209883275e-08
    vertex -7.98149538040161 257.11809999999997 1.9000000953674316
    vertex -8.965850021818472e-08 257.11809999999997 3.000000020830807
  endloop
endfacet
facet normal 0.0 1.0 0.0
  outer loop
    vertex -8.965850021818472e-08 257.11809999999997 3.000000020830807
    vertex -7.98149538040161 257.11809999999997 1.9000000953674316
    vertex -4.022649765014648 257.11809999999997 3.0
  endloop
endfacet
facet normal 0.0 -1.0 0.0
  outer loop
    vertex -6.973432492087182e-08 227.11809999999997 6.907323509026169e-08
    vertex -7.98149538040161 227.11809999999997 1.9000000953674316
    vertex -6.884530067443848 227.11809999999997 6.326817469926027e-08
  endloop
endfacet
facet normal 0.0 -1.0 0.0
  outer loop
    vertex -7.98149538040161 227.11809999999997 1.9000000953674316
    vertex -6.973432492087182e-08 227.11809999999997 6.907323509026169e-08
    vertex -6.973432501761983e-08 227.11809999999997 3.0
  endloop
endfacet
facet normal 0.0 -1.0 0.0
  outer loop
    vertex -7.98149538040161 227.11809999999997 1.9000000953674316
    vertex -6.973432501761983e-08 227.11809999999997 3.0
    vertex -4.022649765014648 227.11809999999997 3.0
  endloop
endfacet
facet normal 0.0 -1.0 0.0
  outer loop
    vertex -7.98149538040161 227.11809999999997 1.9000000953674316
    vertex -4.022649765014648 227.11809999999997 3.0
    vertex -6.884530067443848 227.11809999999997 3.7999999523162837
  endloop
endfacet
facet normal 0.0 -1.0 0.0
  outer loop
    vertex -6.884530067443848 227.11809999999997 3.7999999523162837
    vertex -4.022649765014648 227.11809999999997 3.0
    vertex -4.484529972076416 227.11809999999997 3.7999999523162837
  endloop
endfacet
facet normal 1.8605771555995796e-10 7.300407356245213e-11 1.0
  outer loop
    vertex 1.9999998814548503 231.11810000000003 2.999999999335868
    vertex -6.973432501761983e-08 227.11809999999997 3.0
    vertex 0.9918599823576273 226.88204684956793 2.9999999998326894
  endloop
endfacet
facet normal 0.7071070024906151 0.7071065598824091 4.691924305204644e-08
  outer loop
    vertex 44.31139755249022 302.1180999999999 1.3723813280589547e-07
    vertex 44.695280489809974 301.7342166233299 3.000000114618105
    vertex 46.250733251348464 300.1787630872286 1.481176749210111e-07
  endloop
endfacet
facet normal 0.6573346372692129 0.753598815449011 -1.347648744383978e-16
  outer loop
    vertex 42.01850509643554 304.1180999999999 3.000000238418579
    vertex 44.31139755249022 302.1180999999999 1.3723813280589547e-07
    vertex 42.01850509643554 304.1180999999999 1.431751428526695e-07
  endloop
endfacet
facet normal 0.6650327831573427 0.7467409714208044 0.010455569210338153
  outer loop
    vertex 42.01850509643554 304.1180999999999 3.000000238418579
    vertex 44.695280489809974 301.7342166233299 3.000000114618105
    vertex 44.31139755249022 302.1180999999999 1.3723813280589547e-07
  endloop
endfacet
facet normal -0.8089101406632293 -0.5879322957043562 1.1075029141439619e-10
  outer loop
    vertex 43.0185050965746 194.11810000018542 3.0000000000309055
    vertex 42.55814900736315 194.75148365892937 7.996830149736844e-08
    vertex 43.01850509643554 194.1181 7.996830220236006e-08
  endloop
endfacet
facet normal -0.8089101406632293 -0.5879322957043562 1.1075029141439619e-10
  outer loop
    vertex 42.55814900736315 194.75148365892937 7.996830149736844e-08
    vertex 43.0185050965746 194.11810000018542 3.0000000000309055
    vertex 42.55814900764127 194.75148365930022 3.000000000061811
  endloop
endfacet
facet normal 0.7071074079629982 -0.7071061544094255 -4.0487333644553396e-07
  outer loop
    vertex 46.250733251348464 196.35033291144745 8.580279277775605e-08
    vertex 44.01850509643554 194.1181 3.0
    vertex 44.01850509643554 194.1181 7.996830220236006e-08
  endloop
endfacet
facet normal 0.7071074079629982 -0.7071061544094255 -4.0487333644553396e-07
  outer loop
    vertex 44.01850509643554 194.1181 3.0
    vertex 46.250733251348464 196.35033291144745 8.580279277775605e-08
    vertex 44.695280489809974 194.79487395694443 2.9999999989848605
  endloop
endfacet
facet normal -1.0 0.0 0.0
  outer loop
    vertex 42.01850509643554 304.1180999999999 3.000000238418579
    vertex 42.01850509643554 303.11809999999997 1.446841336005597e-07
    vertex 42.01850509643554 303.11809999999997 3.000000245990105
  endloop
endfacet
facet normal -1.0 0.0 0.0
  outer loop
    vertex 42.01850509643554 303.11809999999997 1.446841336005597e-07
    vertex 42.01850509643554 304.1180999999999 3.000000238418579
    vertex 42.01850509643554 304.1180999999999 1.431751428526695e-07
  endloop
endfacet
facet normal -0.9486832980505143 -0.31622776601683655 -1.9661884594194846e-17
  outer loop
    vertex 42.01850509643554 303.11809999999997 3.000000245990105
    vertex 44.01850509643554 297.11809999999997 1.4578450850286723e-07
    vertex 44.01850509643554 297.11809999999997 3.000000245990105
  endloop
endfacet
facet normal -0.9486832980505143 -0.31622776601683655 -1.9661884594194846e-17
  outer loop
    vertex 44.01850509643554 297.11809999999997 1.4578450850286723e-07
    vertex 42.01850509643554 303.11809999999997 3.000000245990105
    vertex 42.01850509643554 303.11809999999997 1.446841336005597e-07
  endloop
endfacet
facet normal -0.7071067811865426 -0.7071067811865525 4.292705983687393e-23
  outer loop
    vertex 44.01850509643554 215.11809999999997 2.9999999729221507
    vertex 42.01850509643554 217.11809999999994 9.271925992701751e-08
    vertex 44.01850509643554 215.11809999999997 7.34786847422786e-08
  endloop
endfacet
facet normal -0.7071067811865426 -0.7071067811865525 4.292705983687393e-23
  outer loop
    vertex 42.01850509643554 217.11809999999994 9.271925992701751e-08
    vertex 44.01850509643554 215.11809999999997 2.9999999729221507
    vertex 42.01850509643554 217.11809999999994 2.999999992912178
  endloop
endfacet
facet normal -1.0 -2.4233151118443695e-12 3.090244703141447e-11
  outer loop
    vertex 44.01850509671366 198.11810000037082 2.9999999994437525
    vertex 44.01850509643554 215.11809999999997 7.34786847422786e-08
    vertex 44.01850509643554 198.1181 7.935024339663801e-08
  endloop
endfacet
facet normal -1.0 -2.4233151118443695e-12 3.090244703141447e-11
  outer loop
    vertex 44.01850509643554 215.11809999999997 7.34786847422786e-08
    vertex 44.01850509671366 198.11810000037082 2.9999999994437525
    vertex 44.01850509643554 215.11809999999997 2.9999999729221507
  endloop
endfacet
facet normal -0.7071067811865466 0.7071067811865486 -7.223303363520849e-25
  outer loop
    vertex 42.018505097099684 221.1181 2.999999999335868
    vertex 44.018505097099684 223.1181 1.065337659359297e-07
    vertex 42.018505097099684 221.1181 1.0312776512120895e-07
  endloop
endfacet
facet normal -0.7071067811865466 0.7071067811865486 -7.223303363520849e-25
  outer loop
    vertex 44.018505097099684 223.1181 1.065337659359297e-07
    vertex 42.018505097099684 221.1181 2.999999999335868
    vertex 44.018505097099684 223.1181 2.999999999335868
  endloop
endfacet
facet normal 0.5547002032928016 0.8320502896261288 2.604951345757991e-10
  outer loop
    vertex -1.000000063911899 233.11809999944668 2.999999998396644
    vertex 1.9999998814548503 231.11810000000003 7.493345778795758e-08
    vertex -1.0000000610942135 233.11809999944668 7.344408183483442e-08
  endloop
endfacet
facet normal 0.5547002032928016 0.8320502896261288 2.604951345757991e-10
  outer loop
    vertex 1.9999998814548503 231.11810000000003 7.493345778795758e-08
    vertex -1.000000063911899 233.11809999944668 2.999999998396644
    vertex 1.9999998814548503 231.11810000000003 2.999999999335868
  endloop
endfacet
facet normal 0.2424300654679399 0.9701688839357869 8.472074881872478e-18
  outer loop
    vertex 1.9999998814548503 231.11810000000003 2.999999999335868
    vertex 42.018505097099684 221.1181 1.0312776512120895e-07
    vertex 1.9999998814548503 231.11810000000003 7.493345778795758e-08
  endloop
endfacet
facet normal 0.2424300654679399 0.9701688839357869 8.472074881872478e-18
  outer loop
    vertex 42.018505097099684 221.1181 1.0312776512120895e-07
    vertex 1.9999998814548503 231.11810000000003 2.999999999335868
    vertex 42.018505097099684 221.1181 2.999999999335868
  endloop
endfacet
facet normal -0.7071067811865466 -0.7071067811865486 2.1982658888997634e-17
  outer loop
    vertex 44.01850509643553 276.1180999999999 1.2648655663161523e-07
    vertex 42.01850509643553 278.1180999999999 3.0000000099907447
    vertex 42.01850509643553 278.1180999999999 1.2573709747021755e-07
  endloop
endfacet
facet normal -0.7071067811865466 -0.7071067811865486 2.1982658888997634e-17
  outer loop
    vertex 42.01850509643553 278.1180999999999 3.0000000099907447
    vertex 44.01850509643553 276.1180999999999 1.2648655663161523e-07
    vertex 44.01850509643553 276.1180999999999 3.0000000099907447
  endloop
endfacet
facet normal -0.6832842448533977 0.730152477729907 -2.6910344088561997e-11
  outer loop
    vertex 42.55814900736315 196.75148365892937 7.996830149736844e-08
    vertex 44.01850509671366 198.11810000037082 2.9999999994437525
    vertex 44.01850509643554 198.1181 7.935024339663801e-08
  endloop
endfacet
facet normal -0.6832842448533977 0.730152477729907 -2.6910344088561997e-11
  outer loop
    vertex 44.01850509671366 198.11810000037082 2.9999999994437525
    vertex 42.55814900736315 196.75148365892937 7.996830149736844e-08
    vertex 42.55814900764127 196.75148365930022 3.000000000061811
  endloop
endfacet
facet normal -9.270921807976731e-11 -1.0 3.0903073519319e-11
  outer loop
    vertex 44.01850509643554 194.1181 3.0
    vertex 43.01850509643554 194.1181 7.996830220236006e-08
    vertex 44.01850509643554 194.1181 7.996830220236006e-08
  endloop
endfacet
facet normal -9.270921807976731e-11 -1.0 3.0903073519319e-11
  outer loop
    vertex 43.01850509643554 194.1181 7.996830220236006e-08
    vertex 44.01850509643554 194.1181 3.0
    vertex 43.0185050965746 194.11810000018542 3.0000000000309055
  endloop
endfacet
facet normal -1.0 -4.9123304295350174e-27 9.270734057189572e-11
  outer loop
    vertex 42.55814900764127 194.75148365930022 3.000000000061811
    vertex 42.55814900736315 196.75148365892937 7.996830149736844e-08
    vertex 42.55814900736315 194.75148365892937 7.996830149736844e-08
  endloop
endfacet
facet normal -1.0 -4.9123304295350174e-27 9.270734057189572e-11
  outer loop
    vertex 42.55814900736315 196.75148365892937 7.996830149736844e-08
    vertex 42.55814900764127 194.75148365930022 3.000000000061811
    vertex 42.55814900764127 196.75148365930022 3.000000000061811
  endloop
endfacet
facet normal -0.23152398948333855 -0.972829194819789 -1.940154276983398e-16
  outer loop
    vertex 42.01850509643554 217.11809999999994 9.271925992701751e-08
    vertex -6.973432501761983e-08 227.11809999999997 3.0
    vertex -6.973432492087182e-08 227.11809999999997 6.907323509026169e-08
  endloop
endfacet
facet normal -0.23152398948333855 -0.972829194819789 -1.940154276983398e-16
  outer loop
    vertex -6.973432501761983e-08 227.11809999999997 3.0
    vertex 42.01850509643554 217.11809999999994 9.271925992701751e-08
    vertex 0.9918599823576273 226.88204684956793 2.9999999998326894
  endloop
endfacet
facet normal -0.23152398948333855 -0.972829194819789 -1.940154276983398e-16
  outer loop
    vertex 0.9918599823576273 226.88204684956793 2.9999999998326894
    vertex 42.01850509643554 217.11809999999994 9.271925992701751e-08
    vertex 42.01850509643554 217.11809999999994 2.999999992912178
  endloop
endfacet
facet normal 0.5547002023150913 -0.8320502902779355 2.604925200794875e-10
  outer loop
    vertex 1.99999988079071 253.11809999999997 8.755205271882004e-08
    vertex -1.0000000737753745 251.1180999992984 0.3999999990607756
    vertex -1.0000000710563017 251.11809999944663 8.34060713397755e-08
  endloop
endfacet
facet normal 0.5547002023150913 -0.8320502902779355 2.604925200794875e-10
  outer loop
    vertex -1.0000000737753745 251.1180999992984 0.3999999990607756
    vertex 1.99999988079071 253.11809999999997 8.755205271882004e-08
    vertex 1.99999988079071 253.11809999999997 3.0
  endloop
endfacet
facet normal 0.5547002023150913 -0.8320502902779355 2.604925200794875e-10
  outer loop
    vertex -1.0000000737753745 251.1180999992984 0.3999999990607756
    vertex 1.99999988079071 253.11809999999997 3.0
    vertex -1.000000073873959 251.11809999944663 2.9999999990607757
  endloop
endfacet
facet normal 1.2632364718646592e-10 9.145238144619464e-11 1.0
  outer loop
    vertex -3.400000095367431 234.31392366943356 3.0
    vertex -4.022649765014648 234.31392366943356 2.999999999845712
    vertex -3.400000095367431 229.1222809082031 3.0
  endloop
endfacet
facet normal 1.2632364718646592e-10 9.145238144619464e-11 1.0
  outer loop
    vertex -4.022649765014648 227.11809999999997 3.0
    vertex -3.400000095367431 229.1222809082031 3.0
    vertex -4.022649765014648 234.31392366943356 2.999999999845712
  endloop
endfacet
facet normal 1.2632364718646592e-10 9.145238144619464e-11 1.0
  outer loop
    vertex -3.400000095367431 229.1222809082031 3.0
    vertex -4.022649765014648 227.11809999999997 3.0
    vertex -6.973432501761983e-08 227.11809999999997 3.0
  endloop
endfacet
facet normal 1.2632364718646592e-10 9.145238144619464e-11 1.0
  outer loop
    vertex -3.400000095367431 229.1222809082031 3.0
    vertex -6.973432501761983e-08 227.11809999999997 3.0
    vertex -1.0000001192092896 229.1222809082031 3.0
  endloop
endfacet
facet normal 1.2632364718646592e-10 9.145238144619464e-11 1.0
  outer loop
    vertex -1.0000001192092896 229.1222809082031 3.0
    vertex -6.973432501761983e-08 227.11809999999997 3.0
    vertex -1.000000063911899 233.11809999944668 2.999999998396644
  endloop
endfacet
facet normal 1.2632364718646592e-10 9.145238144619464e-11 1.0
  outer loop
    vertex -1.000000063911899 233.11809999944668 2.999999998396644
    vertex -6.973432501761983e-08 227.11809999999997 3.0
    vertex 1.9999998814548503 231.11810000000003 2.999999999335868
  endloop
endfacet
facet normal -0.7071067811865466 0.7071067811865486 -2.1982656362826354e-17
  outer loop
    vertex 42.01850509643554 282.11809999999997 3.0000002484093238
    vertex 44.01850509643554 284.11809999999997 1.3312791431763657e-07
    vertex 42.01850509643554 282.11809999999997 1.2972192771377053e-07
  endloop
endfacet
facet normal -0.7071067811865466 0.7071067811865486 -2.1982656362826354e-17
  outer loop
    vertex 44.01850509643554 284.11809999999997 1.3312791431763657e-07
    vertex 42.01850509643554 282.11809999999997 3.0000002484093238
    vertex 44.01850509643554 284.11809999999997 3.0000002484093238
  endloop
endfacet
facet normal -1.0 0.0 0.0
  outer loop
    vertex 44.01850509643554 297.11809999999997 3.000000245990105
    vertex 44.01850509643554 284.11809999999997 1.3312791431763657e-07
    vertex 44.01850509643554 284.11809999999997 3.0000002484093238
  endloop
endfacet
facet normal -1.0 0.0 0.0
  outer loop
    vertex 44.01850509643554 284.11809999999997 1.3312791431763657e-07
    vertex 44.01850509643554 297.11809999999997 3.000000245990105
    vertex 44.01850509643554 297.11809999999997 1.4578450850286723e-07
  endloop
endfacet
facet normal -8.793861550976907e-10 -1.5037676655586088e-09 1.0
  outer loop
    vertex -1.000000073873959 251.11809999944663 2.9999999990607757
    vertex -4.022649765014648 257.11809999999997 3.0
    vertex -4.022649765014648 249.10300017434358 2.99999999905723
  endloop
endfacet
facet normal -8.793861550976907e-10 -1.5037676655586088e-09 1.0
  outer loop
    vertex -4.022649765014648 257.11809999999997 3.0
    vertex -1.000000073873959 251.11809999944663 2.9999999990607757
    vertex -8.965850021818472e-08 257.11809999999997 3.000000020830807
  endloop
endfacet
facet normal -8.793861550976907e-10 -1.5037676655586088e-09 1.0
  outer loop
    vertex -8.965850021818472e-08 257.11809999999997 3.000000020830807
    vertex -1.000000073873959 251.11809999944663 2.9999999990607757
    vertex 1.99999988079071 253.11809999999997 3.0
  endloop
endfacet
facet normal -3.7917090588769987e-11 5.701194658336461e-11 1.0
  outer loop
    vertex -4.022649764916063 234.31392366928534 0.39999999984571183
    vertex -1.0000000737753745 251.1180999992984 0.3999999990607756
    vertex -4.022649764916064 249.10300017419536 0.39999999905723016
  endloop
endfacet
facet normal -3.7917090588769987e-11 5.701194658336461e-11 1.0
  outer loop
    vertex -1.0000000737753745 251.1180999992984 0.3999999990607756
    vertex -4.022649764916063 234.31392366928534 0.39999999984571183
    vertex -3.400000095268847 234.31392366928534 0.39999999999999963
  endloop
endfacet
facet normal -3.7917090588769987e-11 5.701194658336461e-11 1.0
  outer loop
    vertex -1.0000000737753745 251.1180999992984 0.3999999990607756
    vertex -3.400000095268847 234.31392366928534 0.39999999999999963
    vertex -1.000000119110705 234.31392366928534 0.39999999999999963
  endloop
endfacet
facet normal 1.0 4.7671774321646115e-17 3.7917090588769987e-11
  outer loop
    vertex -4.022649764916064 249.10300017419536 0.39999999905723016
    vertex -4.022649765014648 234.31392366943356 2.999999999845712
    vertex -4.022649764916063 234.31392366928534 0.39999999984571183
  endloop
endfacet
facet normal 1.0 4.7671774321646115e-17 3.7917090588769987e-11
  outer loop
    vertex -4.022649765014648 234.31392366943356 2.999999999845712
    vertex -4.022649764916064 249.10300017419536 0.39999999905723016
    vertex -4.022649765014648 249.10300017434358 2.99999999905723
  endloop
endfacet
facet normal 1.4127119076431032e-20 1.0 -5.7011946583364614e-11
  outer loop
    vertex -4.022649765014648 234.31392366943356 2.999999999845712
    vertex -3.400000095268847 234.31392366928534 0.39999999999999963
    vertex -4.022649764916063 234.31392366928534 0.39999999984571183
  endloop
endfacet
facet normal 1.4127119076431032e-20 1.0 -5.7011946583364614e-11
  outer loop
    vertex -3.400000095268847 234.31392366928534 0.39999999999999963
    vertex -4.022649765014648 234.31392366943356 2.999999999845712
    vertex -3.400000095367431 234.31392366943356 3.0
  endloop
endfacet
facet normal 0.0 1.0 -5.701194658336461e-11
  outer loop
    vertex -3.400000095367431 234.31392366943356 3.0
    vertex -1.000000119110705 234.31392366928534 0.39999999999999963
    vertex -3.400000095268847 234.31392366928534 0.39999999999999963
  endloop
endfacet
facet normal 0.0 1.0 -5.701194658336461e-11
  outer loop
    vertex -1.000000119110705 234.31392366928534 0.39999999999999963
    vertex -3.400000095367431 234.31392366943356 3.0
    vertex -1.0000001192092896 234.31392366943356 3.0
  endloop
endfacet
facet normal 0.5547002021347535 -0.8320502903981607 6.846942452480541e-11
  outer loop
    vertex -1.0000000737753745 251.1180999992984 0.3999999990607756
    vertex -4.022649765014648 249.10300017434358 2.99999999905723
    vertex -4.022649764916064 249.10300017419536 0.39999999905723016
  endloop
endfacet
facet normal 0.5547002021347535 -0.8320502903981607 6.846942452480541e-11
  outer loop
    vertex -4.022649765014648 249.10300017434358 2.99999999905723
    vertex -1.0000000737753745 251.1180999992984 0.3999999990607756
    vertex -1.000000073873959 251.11809999944663 2.9999999990607757
  endloop
endfacet
facet normal -1.0 -1.2531186151636159e-11 4.9915410474251936e-27
  outer loop
    vertex 44.01850509643553 276.1180999999999 3.0000000099907447
    vertex 44.018505097099684 223.1181 1.065337659359297e-07
    vertex 44.018505097099684 223.1181 2.999999999335868
  endloop
endfacet
facet normal -1.0 -1.2531186151636159e-11 4.9915410474251936e-27
  outer loop
    vertex 44.018505097099684 223.1181 1.065337659359297e-07
    vertex 44.01850509643553 276.1180999999999 3.0000000099907447
    vertex 44.01850509643553 276.1180999999999 1.2648655663161523e-07
  endloop
endfacet
facet normal -0.5113175023089308 0.8593918849003386 1.874450265534199e-15
  outer loop
    vertex -8.965850021818472e-08 257.11809999999997 3.000000020830807
    vertex 42.01850509643554 282.11809999999997 1.2972192771377053e-07
    vertex -8.96585010560066e-08 257.11809999999997 8.899727209883275e-08
  endloop
endfacet
facet normal -0.04662299042205075 0.19590285276732242 0.9795143536680462
  outer loop
    vertex 42.01850509643554 282.11809999999997 1.2972192771377053e-07
    vertex -8.965850021818472e-08 257.11809999999997 3.000000020830807
    vertex 0.9918599823576273 257.35415315506185 3.000000016906842
  endloop
endfacet
facet normal -0.5167642212876772 0.8561277589220785 9.793555516877058e-16
  outer loop
    vertex 42.01850509643554 282.11809999999997 3.0000002484093238
    vertex 42.01850509643554 282.11809999999997 1.2972192771377053e-07
    vertex 0.9918599823576273 257.35415315506185 3.000000016906842
  endloop
endfacet
facet normal -1.5932775200271599e-09 -1.988192755926887e-09 1.0
  outer loop
    vertex 1.99999988079071 253.11809999999997 3.0
    vertex 42.01850509643554 282.11809999999997 3.0000002484093238
    vertex 0.9918599823576273 257.35415315506185 3.000000016906842
  endloop
endfacet
facet normal -1.5932775200271599e-09 -1.988192755926887e-09 1.0
  outer loop
    vertex 42.01850509643554 282.11809999999997 3.0000002484093238
    vertex 1.99999988079071 253.11809999999997 3.0
    vertex 42.01850509643553 278.1180999999999 3.0000000099907447
  endloop
endfacet
facet normal -1.5932775200271599e-09 -1.988192755926887e-09 1.0
  outer loop
    vertex 42.01850509643554 282.11809999999997 3.0000002484093238
    vertex 42.01850509643553 278.1180999999999 3.0000000099907447
    vertex 44.01850509643553 276.1180999999999 3.0000000099907447
  endloop
endfacet
facet normal -1.5932775200271599e-09 -1.988192755926887e-09 1.0
  outer loop
    vertex 42.01850509643554 282.11809999999997 3.0000002484093238
    vertex 44.01850509643553 276.1180999999999 3.0000000099907447
    vertex 44.01850509643554 284.11809999999997 3.0000002484093238
  endloop
endfacet
facet normal -1.5932775200271599e-09 -1.988192755926887e-09 1.0
  outer loop
    vertex 44.01850509643554 284.11809999999997 3.0000002484093238
    vertex 44.01850509643553 276.1180999999999 3.0000000099907447
    vertex 44.018505097099684 223.1181 2.999999999335868
  endloop
endfacet
facet normal -1.5932775200271599e-09 -1.988192755926887e-09 1.0
  outer loop
    vertex 44.01850509643554 284.11809999999997 3.0000002484093238
    vertex 44.018505097099684 223.1181 2.999999999335868
    vertex 44.01850509643554 297.11809999999997 3.000000245990105
  endloop
endfacet
facet normal -1.5932775200271599e-09 -1.988192755926887e-09 1.0
  outer loop
    vertex 43.0185050965746 194.11810000018542 3.0000000000309055
    vertex 42.55814900764127 196.75148365930022 3.000000000061811
    vertex 42.55814900764127 194.75148365930022 3.000000000061811
  endloop
endfacet
facet normal -1.5932775200271599e-09 -1.988192755926887e-09 1.0
  outer loop
    vertex 42.55814900764127 196.75148365930022 3.000000000061811
    vertex 43.0185050965746 194.11810000018542 3.0000000000309055
    vertex 44.01850509671366 198.11810000037082 2.9999999994437525
  endloop
endfacet
facet normal -1.5932775200271599e-09 -1.988192755926887e-09 1.0
  outer loop
    vertex 44.01850509671366 198.11810000037082 2.9999999994437525
    vertex 43.0185050965746 194.11810000018542 3.0000000000309055
    vertex 44.01850509643554 194.1181 3.0
  endloop
endfacet
facet normal -1.5932775200271599e-09 -1.988192755926887e-09 1.0
  outer loop
    vertex 44.01850509671366 198.11810000037082 2.9999999994437525
    vertex 44.01850509643554 194.1181 3.0
    vertex 44.695280489809974 194.79487395694443 2.9999999989848605
  endloop
endfacet
facet normal -1.5932775200271599e-09 -1.988192755926887e-09 1.0
  outer loop
    vertex 44.01850509671366 198.11810000037082 2.9999999994437525
    vertex 44.695280489809974 194.79487395694443 2.9999999989848605
    vertex 44.018505097099684 223.1181 2.999999999335868
  endloop
endfacet
facet normal -1.5932775200271599e-09 -1.988192755926887e-09 1.0
  outer loop
    vertex 44.01850509643554 297.11809999999997 3.000000245990105
    vertex 42.01850509643554 304.1180999999999 3.000000238418579
    vertex 42.01850509643554 303.11809999999997 3.000000245990105
  endloop
endfacet
facet normal -1.5932775200271599e-09 -1.988192755926887e-09 1.0
  outer loop
    vertex 42.01850509643554 304.1180999999999 3.000000238418579
    vertex 44.01850509643554 297.11809999999997 3.000000245990105
    vertex 44.695280489809974 301.7342166233299 3.000000114618105
  endloop
endfacet
facet normal -1.5932775200271599e-09 -1.988192755926887e-09 1.0
  outer loop
    vertex 44.695280489809974 301.7342166233299 3.000000114618105
    vertex 44.01850509643554 297.11809999999997 3.000000245990105
    vertex 44.018505097099684 223.1181 2.999999999335868
  endloop
endfacet
facet normal -1.5932775200271599e-09 -1.988192755926887e-09 1.0
  outer loop
    vertex 44.695280489809974 301.7342166233299 3.000000114618105
    vertex 44.018505097099684 223.1181 2.999999999335868
    vertex 44.695280489809974 194.79487395694443 2.9999999989848605
  endloop
endfacet
facet normal -1.5932775200271599e-09 -1.988192755926887e-09 1.0
  outer loop
    vertex 42.01850509643554 217.11809999999994 2.999999992912178
    vertex 1.9999998814548503 231.11810000000003 2.999999999335868
    vertex 0.9918599823576273 226.88204684956793 2.9999999998326894
  endloop
endfacet
facet normal -1.5932775200271599e-09 -1.988192755926887e-09 1.0
  outer loop
    vertex 1.9999998814548503 231.11810000000003 2.999999999335868
    vertex 42.01850509643554 217.11809999999994 2.999999992912178
    vertex 42.018505097099684 221.1181 2.999999999335868
  endloop
endfacet
facet normal -1.5932775200271599e-09 -1.988192755926887e-09 1.0
  outer loop
    vertex 42.018505097099684 221.1181 2.999999999335868
    vertex 42.01850509643554 217.11809999999994 2.999999992912178
    vertex 44.01850509643554 215.11809999999997 2.9999999729221507
  endloop
endfacet
facet normal -1.5932775200271599e-09 -1.988192755926887e-09 1.0
  outer loop
    vertex 42.018505097099684 221.1181 2.999999999335868
    vertex 44.01850509643554 215.11809999999997 2.9999999729221507
    vertex 44.018505097099684 223.1181 2.999999999335868
  endloop
endfacet
facet normal -1.5932775200271599e-09 -1.988192755926887e-09 1.0
  outer loop
    vertex 44.018505097099684 223.1181 2.999999999335868
    vertex 44.01850509643554 215.11809999999997 2.9999999729221507
    vertex 44.01850509671366 198.11810000037082 2.9999999994437525
  endloop
endfacet
facet normal 0.8877669580547117 -3.902524122107422e-10 0.4602931980664971
  outer loop
    vertex 46.250733251348464 196.35033291144745 8.580279277775605e-08
    vertex 44.695280489809974 301.7342166233299 3.000000114618105
    vertex 44.695280489809974 194.79487395694443 2.9999999989848605
  endloop
endfacet
facet normal 0.8877669580547117 -3.902524122107422e-10 0.4602931980664971
  outer loop
    vertex 44.695280489809974 301.7342166233299 3.000000114618105
    vertex 46.250733251348464 196.35033291144745 8.580279277775605e-08
    vertex 46.250733251348464 300.1787630872286 1.481176749210111e-07
  endloop
endfacet
facet normal 0.5298226681906071 -0.8481084484141082 -2.212507668533866e-16
  outer loop
    vertex 42.01850509643553 278.1180999999999 1.2573709747021755e-07
    vertex 1.99999988079071 253.11809999999997 3.0
    vertex 1.99999988079071 253.11809999999997 8.755205271882004e-08
  endloop
endfacet
facet normal 0.5298226681906071 -0.8481084484141082 -2.212507668533866e-16
  outer loop
    vertex 1.99999988079071 253.11809999999997 3.0
    vertex 42.01850509643553 278.1180999999999 1.2573709747021755e-07
    vertex 42.01850509643553 278.1180999999999 3.0000000099907447
  endloop
endfacet
facet normal 6.575938670787453e-10 6.10457331342684e-10 -1.0
  outer loop
    vertex 44.31139755249022 302.1180999999999 1.3723813280589547e-07
    vertex 42.01850509643554 303.11809999999997 1.446841336005597e-07
    vertex 42.01850509643554 304.1180999999999 1.431751428526695e-07
  endloop
endfacet
facet normal 6.575938670787453e-10 6.10457331342684e-10 -1.0
  outer loop
    vertex 42.01850509643554 303.11809999999997 1.446841336005597e-07
    vertex 44.31139755249022 302.1180999999999 1.3723813280589547e-07
    vertex 44.01850509643554 297.11809999999997 1.4578450850286723e-07
  endloop
endfacet
facet normal 6.575938670787453e-10 6.10457331342684e-10 -1.0
  outer loop
    vertex 44.01850509643554 297.11809999999997 1.4578450850286723e-07
    vertex 44.31139755249022 302.1180999999999 1.3723813280589547e-07
    vertex 44.01850509643554 284.11809999999997 1.3312791431763657e-07
  endloop
endfacet
facet normal 6.575938670787453e-10 6.10457331342684e-10 -1.0
  outer loop
    vertex 44.01850509643554 284.11809999999997 1.3312791431763657e-07
    vertex 44.31139755249022 302.1180999999999 1.3723813280589547e-07
    vertex 44.018505097099684 223.1181 1.065337659359297e-07
  endloop
endfacet
facet normal 6.575938670787453e-10 6.10457331342684e-10 -1.0
  outer loop
    vertex -6.884530067443848 227.11809999999997 6.326817469926027e-08
    vertex -1.0000000610942135 233.11809999944668 7.344408183483442e-08
    vertex -6.973432492087182e-08 227.11809999999997 6.907323509026169e-08
  endloop
endfacet
facet normal 6.575938670787453e-10 6.10457331342684e-10 -1.0
  outer loop
    vertex -1.0000000610942135 233.11809999944668 7.344408183483442e-08
    vertex -6.884530067443848 227.11809999999997 6.326817469926027e-08
    vertex -1.0000000710563017 251.11809999944663 8.34060713397755e-08
  endloop
endfacet
facet normal 6.575938670787453e-10 6.10457331342684e-10 -1.0
  outer loop
    vertex -6.973432492087182e-08 227.11809999999997 6.907323509026169e-08
    vertex -1.0000000610942135 233.11809999944668 7.344408183483442e-08
    vertex 1.9999998814548503 231.11810000000003 7.493345778795758e-08
  endloop
endfacet
facet normal 6.575938670787453e-10 6.10457331342684e-10 -1.0
  outer loop
    vertex -6.973432492087182e-08 227.11809999999997 6.907323509026169e-08
    vertex 1.9999998814548503 231.11810000000003 7.493345778795758e-08
    vertex 42.01850509643554 217.11809999999994 9.271925992701751e-08
  endloop
endfacet
facet normal 6.575938670787453e-10 6.10457331342684e-10 -1.0
  outer loop
    vertex 42.01850509643554 217.11809999999994 9.271925992701751e-08
    vertex 1.9999998814548503 231.11810000000003 7.493345778795758e-08
    vertex 42.018505097099684 221.1181 1.0312776512120895e-07
  endloop
endfacet
facet normal 6.575938670787453e-10 6.10457331342684e-10 -1.0
  outer loop
    vertex 42.01850509643554 217.11809999999994 9.271925992701751e-08
    vertex 42.018505097099684 221.1181 1.0312776512120895e-07
    vertex 44.01850509643554 215.11809999999997 7.34786847422786e-08
  endloop
endfacet
facet normal 6.575938670787453e-10 6.10457331342684e-10 -1.0
  outer loop
    vertex 44.01850509643554 215.11809999999997 7.34786847422786e-08
    vertex 42.018505097099684 221.1181 1.0312776512120895e-07
    vertex 44.018505097099684 223.1181 1.065337659359297e-07
  endloop
endfacet
facet normal 6.575938670787453e-10 6.10457331342684e-10 -1.0
  outer loop
    vertex 44.01850509643554 215.11809999999997 7.34786847422786e-08
    vertex 44.018505097099684 223.1181 1.065337659359297e-07
    vertex 44.01850509643554 198.1181 7.935024339663801e-08
  endloop
endfacet
facet normal 6.575938670787453e-10 6.10457331342684e-10 -1.0
  outer loop
    vertex 44.01850509643554 198.1181 7.935024339663801e-08
    vertex 44.018505097099684 223.1181 1.065337659359297e-07
    vertex 44.01850509643554 194.1181 7.996830220236006e-08
  endloop
endfacet
facet normal 6.575938670787453e-10 6.10457331342684e-10 -1.0
  outer loop
    vertex 44.01850509643554 194.1181 7.996830220236006e-08
    vertex 44.018505097099684 223.1181 1.065337659359297e-07
    vertex 46.250733251348464 196.35033291144745 8.580279277775605e-08
  endloop
endfacet
facet normal 6.575938670787453e-10 6.10457331342684e-10 -1.0
  outer loop
    vertex 46.250733251348464 196.35033291144745 8.580279277775605e-08
    vertex 44.018505097099684 223.1181 1.065337659359297e-07
    vertex 44.31139755249022 302.1180999999999 1.3723813280589547e-07
  endloop
endfacet
facet normal 6.575938670787453e-10 6.10457331342684e-10 -1.0
  outer loop
    vertex 46.250733251348464 196.35033291144745 8.580279277775605e-08
    vertex 44.31139755249022 302.1180999999999 1.3723813280589547e-07
    vertex 46.250733251348464 300.1787630872286 1.481176749210111e-07
  endloop
endfacet
facet normal 6.575938670787453e-10 6.10457331342684e-10 -1.0
  outer loop
    vertex 44.01850509643554 198.1181 7.935024339663801e-08
    vertex 42.55814900736315 194.75148365892937 7.996830149736844e-08
    vertex 42.55814900736315 196.75148365892937 7.996830149736844e-08
  endloop
endfacet
facet normal 6.575938670787453e-10 6.10457331342684e-10 -1.0
  outer loop
    vertex 42.55814900736315 194.75148365892937 7.996830149736844e-08
    vertex 44.01850509643554 198.1181 7.935024339663801e-08
    vertex 43.01850509643554 194.1181 7.996830220236006e-08
  endloop
endfacet
facet normal 6.575938670787453e-10 6.10457331342684e-10 -1.0
  outer loop
    vertex 43.01850509643554 194.1181 7.996830220236006e-08
    vertex 44.01850509643554 198.1181 7.935024339663801e-08
    vertex 44.01850509643554 194.1181 7.996830220236006e-08
  endloop
endfacet
facet normal 6.575938670787453e-10 6.10457331342684e-10 -1.0
  outer loop
    vertex -8.96585010560066e-08 257.11809999999997 8.899727209883275e-08
    vertex -6.884530067443848 227.11809999999997 6.326817469926027e-08
    vertex -6.884530067443848 257.11809999999997 8.319226907360643e-08
  endloop
endfacet
facet normal 6.575938670787453e-10 6.10457331342684e-10 -1.0
  outer loop
    vertex -6.884530067443848 227.11809999999997 6.326817469926027e-08
    vertex -8.96585010560066e-08 257.11809999999997 8.899727209883275e-08
    vertex -1.0000000710563017 251.11809999944663 8.34060713397755e-08
  endloop
endfacet
facet normal 6.575938670787453e-10 6.10457331342684e-10 -1.0
  outer loop
    vertex -1.0000000710563017 251.11809999944663 8.34060713397755e-08
    vertex -8.96585010560066e-08 257.11809999999997 8.899727209883275e-08
    vertex 1.99999988079071 253.11809999999997 8.755205271882004e-08
  endloop
endfacet
facet normal 6.575938670787453e-10 6.10457331342684e-10 -1.0
  outer loop
    vertex 1.99999988079071 253.11809999999997 8.755205271882004e-08
    vertex -8.96585010560066e-08 257.11809999999997 8.899727209883275e-08
    vertex 42.01850509643554 282.11809999999997 1.2972192771377053e-07
  endloop
endfacet
facet normal 6.575938670787453e-10 6.10457331342684e-10 -1.0
  outer loop
    vertex 1.99999988079071 253.11809999999997 8.755205271882004e-08
    vertex 42.01850509643554 282.11809999999997 1.2972192771377053e-07
    vertex 42.01850509643553 278.1180999999999 1.2573709747021755e-07
  endloop
endfacet
facet normal 6.575938670787453e-10 6.10457331342684e-10 -1.0
  outer loop
    vertex 42.01850509643553 278.1180999999999 1.2573709747021755e-07
    vertex 42.01850509643554 282.11809999999997 1.2972192771377053e-07
    vertex 44.01850509643553 276.1180999999999 1.2648655663161523e-07
  endloop
endfacet
facet normal 6.575938670787453e-10 6.10457331342684e-10 -1.0
  outer loop
    vertex 44.01850509643553 276.1180999999999 1.2648655663161523e-07
    vertex 42.01850509643554 282.11809999999997 1.2972192771377053e-07
    vertex 44.01850509643554 284.11809999999997 1.3312791431763657e-07
  endloop
endfacet
facet normal 6.575938670787453e-10 6.10457331342684e-10 -1.0
  outer loop
    vertex 44.01850509643553 276.1180999999999 1.2648655663161523e-07
    vertex 44.01850509643554 284.11809999999997 1.3312791431763657e-07
    vertex 44.018505097099684 223.1181 1.065337659359297e-07
  endloop
endfacet
endsolid redo
