solid redo
facet normal 8.58699631400136e-18 0.7071050834939866 0.7071084788750326
  outer loop
    vertex -3.400000095367433 468.2773190917968 3.0
    vertex -3.400000095367433 467.6814938964843 3.595822334289551
    vertex -1.0000001192092909 468.2773190917968 3.0
  endloop
endfacet
facet normal 8.58699631400136e-18 0.7071050834939866 0.7071084788750326
  outer loop
    vertex -1.0000001192092909 467.6814938964843 3.595822334289551
    vertex -1.0000001192092909 468.2773190917968 3.0
    vertex -3.400000095367433 467.6814938964843 3.595822334289551
  endloop
endfacet
facet normal 0.9999999999999996 2.2652973901388714e-09 2.9161940011844205e-08
  outer loop
    vertex -1.0000001192092909 468.2773190917968 3.0
    vertex -1.0000001192092909 467.6814938964843 3.595822334289551
    vertex -1.0000000639119004 464.28150000055325 2.999999998396644
  endloop
endfacet
facet normal 0.9999999999999996 2.2652973901388714e-09 2.9161940011844205e-08
  outer loop
    vertex -1.0000001192092909 463.68149389648426 3.595822334289551
    vertex -1.0000000639119004 464.28150000055325 2.999999998396644
    vertex -1.0000001192092909 467.6814938964843 3.595822334289551
  endloop
endfacet
facet normal 0.9999999999999996 2.2652973901388714e-09 2.9161940011844205e-08
  outer loop
    vertex -1.0000001192092909 463.08567633056634 3.0
    vertex -1.0000000639119004 464.28150000055325 2.999999998396644
    vertex -1.0000001192092909 463.68149389648426 3.595822334289551
  endloop
endfacet
facet normal 0.0 0.0 1.0
  outer loop
    vertex -3.400000095367433 467.6814938964843 3.595822334289551
    vertex -3.400000095367433 463.68149389648426 3.595822334289551
    vertex -1.0000001192092909 467.6814938964843 3.595822334289551
  endloop
endfacet
facet normal 0.0 0.0 1.0
  outer loop
    vertex -1.0000001192092909 463.68149389648426 3.595822334289551
    vertex -1.0000001192092909 467.6814938964843 3.595822334289551
    vertex -3.400000095367433 463.68149389648426 3.595822334289551
  endloop
endfacet
facet normal -2.9515702650538147e-30 -0.7071096106832409 0.7071039516785319
  outer loop
    vertex -3.400000095367433 463.08567633056634 3.0
    vertex -1.0000001192092909 463.08567633056634 3.0
    vertex -3.400000095367433 463.68149389648426 3.595822334289551
  endloop
endfacet
facet normal -2.9515702650538147e-30 -0.7071096106832409 0.7071039516785319
  outer loop
    vertex -1.0000001192092909 463.68149389648426 3.595822334289551
    vertex -3.400000095367433 463.68149389648426 3.595822334289551
    vertex -1.0000001192092909 463.08567633056634 3.0
  endloop
endfacet
facet normal -1.0 0.0 0.0
  outer loop
    vertex -3.400000095367433 468.2773190917968 3.0
    vertex -3.400000095367433 463.08567633056634 3.0
    vertex -3.400000095367433 467.6814938964843 3.595822334289551
  endloop
endfacet
facet normal -1.0 0.0 0.0
  outer loop
    vertex -3.400000095367433 463.68149389648426 3.595822334289551
    vertex -3.400000095367433 467.6814938964843 3.595822334289551
    vertex -3.400000095367433 463.08567633056634 3.0
  endloop
endfacet
facet normal -0.8660254454851183 -1.6603409525029096e-10 -0.4999999277722976
  outer loop
    vertex -7.981495380401611 470.2815 1.9000000953674316
    vertex -6.8845300674438485 470.2815 6.326817469926027e-08
    vertex -7.981495380401611 440.28149999999994 1.9000000953674316
  endloop
endfacet
facet normal -0.8660254454851183 -1.6603409525029096e-10 -0.4999999277722976
  outer loop
    vertex -6.8845300674438485 440.28149999999994 8.319226907360643e-08
    vertex -7.981495380401611 440.28149999999994 1.9000000953674316
    vertex -6.8845300674438485 470.2815 6.326817469926027e-08
  endloop
endfacet
facet normal 0.8660254270275235 1.986821336801531e-09 0.4999999597417942
  outer loop
    vertex -4.022649765014649 470.2815 3.0
    vertex -4.484529972076417 470.2815 3.7999999523162837
    vertex -4.022649765014649 463.08567633056634 2.999999999845712
  endloop
endfacet
facet normal 0.8660254270275235 1.986821336801531e-09 0.4999999597417942
  outer loop
    vertex -4.484529972076417 440.28149999999994 3.8000001907348633
    vertex -4.022649765014649 463.08567633056634 2.999999999845712
    vertex -4.484529972076417 470.2815 3.7999999523162837
  endloop
endfacet
facet normal 0.8660254270275235 1.986821336801531e-09 0.4999999597417942
  outer loop
    vertex -4.02264976501465 448.29659982565636 2.99999999905723
    vertex -4.022649765014649 463.08567633056634 2.999999999845712
    vertex -4.484529972076417 440.28149999999994 3.8000001907348633
  endloop
endfacet
facet normal 0.8660254270275235 1.986821336801531e-09 0.4999999597417942
  outer loop
    vertex -4.022649765014649 440.28149999999994 3.0
    vertex -4.02264976501465 448.29659982565636 2.99999999905723
    vertex -4.484529972076417 440.28149999999994 3.8000001907348633
  endloop
endfacet
facet normal -2.1943920045298878e-38 7.94728598744557e-09 1.0
  outer loop
    vertex -6.8845300674438485 470.2815 3.7999999523162837
    vertex -6.8845300674438485 440.28149999999994 3.8000001907348633
    vertex -4.484529972076417 470.2815 3.7999999523162837
  endloop
endfacet
facet normal -2.1943920045298878e-38 7.94728598744557e-09 1.0
  outer loop
    vertex -4.484529972076417 440.28149999999994 3.8000001907348633
    vertex -4.484529972076417 470.2815 3.7999999523162837
    vertex -6.8845300674438485 440.28149999999994 3.8000001907348633
  endloop
endfacet
facet normal -0.8660254402457727 1.986821245992837e-09 0.49999993684711164
  outer loop
    vertex -6.8845300674438485 470.2815 3.7999999523162837
    vertex -7.981495380401611 470.2815 1.9000000953674316
    vertex -6.8845300674438485 440.28149999999994 3.8000001907348633
  endloop
endfacet
facet normal -0.8660254402457727 1.986821245992837e-09 0.49999993684711164
  outer loop
    vertex -7.981495380401611 440.28149999999994 1.9000000953674316
    vertex -6.8845300674438485 440.28149999999994 3.8000001907348633
    vertex -7.981495380401611 470.2815 1.9000000953674316
  endloop
endfacet
facet normal 1.0 2.261850089741549e-10 6.333798735626589e-09
  outer loop
    vertex -1.0000000639119004 464.28150000055325 2.999999998396644
    vertex -1.0000001191107066 463.08567633071453 0.39999999999999963
    vertex -1.000000061094215 464.28150000055325 7.344408183483442e-08
  endloop
endfacet
facet normal 1.0 2.261850089741549e-10 6.333798735626589e-09
  outer loop
    vertex -1.000000071056303 446.28150000055325 8.34060713397755e-08
    vertex -1.000000061094215 464.28150000055325 7.344408183483442e-08
    vertex -1.0000001191107066 463.08567633071453 0.39999999999999963
  endloop
endfacet
facet normal 1.0 2.261850089741549e-10 6.333798735626589e-09
  outer loop
    vertex -1.000000073775376 446.28150000070156 0.3999999990607756
    vertex -1.000000071056303 446.28150000055325 8.34060713397755e-08
    vertex -1.0000001191107066 463.08567633071453 0.39999999999999963
  endloop
endfacet
facet normal 1.0 2.261850089741549e-10 6.333798735626589e-09
  outer loop
    vertex -1.0000001191107066 463.08567633071453 0.39999999999999963
    vertex -1.0000000639119004 464.28150000055325 2.999999998396644
    vertex -1.0000001192092909 463.08567633056634 3.0
  endloop
endfacet
facet normal 4.643050246262423e-09 2.8861767205379382e-09 1.0
  outer loop
    vertex -8.965850162816797e-08 440.28149999999994 3.000000020830807
    vertex 0.991859982357626 440.045446844938 3.000000016906842
    vertex 1.9999998807907087 444.28149999999994 3.0
  endloop
endfacet
facet normal 0.0 -1.0 0.0
  outer loop
    vertex -7.981495380401611 440.28149999999994 1.9000000953674316
    vertex -4.022649765014649 440.28149999999994 3.0
    vertex -6.8845300674438485 440.28149999999994 3.8000001907348633
  endloop
endfacet
facet normal 0.0 -1.0 0.0
  outer loop
    vertex -4.484529972076417 440.28149999999994 3.8000001907348633
    vertex -6.8845300674438485 440.28149999999994 3.8000001907348633
    vertex -4.022649765014649 440.28149999999994 3.0
  endloop
endfacet
facet normal 0.0 -1.0 0.0
  outer loop
    vertex -6.8845300674438485 440.28149999999994 8.319226907360643e-08
    vertex -8.965850246598984e-08 440.28149999999994 8.899727209883275e-08
    vertex -7.981495380401611 440.28149999999994 1.9000000953674316
  endloop
endfacet
facet normal 0.0 -1.0 0.0
  outer loop
    vertex -8.965850162816797e-08 440.28149999999994 3.000000020830807
    vertex -7.981495380401611 440.28149999999994 1.9000000953674316
    vertex -8.965850246598984e-08 440.28149999999994 8.899727209883275e-08
  endloop
endfacet
facet normal 0.0 -1.0 0.0
  outer loop
    vertex -4.022649765014649 440.28149999999994 3.0
    vertex -7.981495380401611 440.28149999999994 1.9000000953674316
    vertex -8.965850162816797e-08 440.28149999999994 3.000000020830807
  endloop
endfacet
facet normal 0.0 1.0 0.0
  outer loop
    vertex -6.8845300674438485 470.2815 6.326817469926027e-08
    vertex -7.981495380401611 470.2815 1.9000000953674316
    vertex -6.973432633085505e-08 470.2815 6.907323509026169e-08
  endloop
endfacet
facet normal 0.0 1.0 0.0
  outer loop
    vertex -6.973432642760308e-08 470.2815 3.0
    vertex -6.973432633085505e-08 470.2815 6.907323509026169e-08
    vertex -7.981495380401611 470.2815 1.9000000953674316
  endloop
endfacet
facet normal 0.0 1.0 0.0
  outer loop
    vertex -4.022649765014649 470.2815 3.0
    vertex -6.973432642760308e-08 470.2815 3.0
    vertex -7.981495380401611 470.2815 1.9000000953674316
  endloop
endfacet
facet normal 0.0 1.0 0.0
  outer loop
    vertex -6.8845300674438485 470.2815 3.7999999523162837
    vertex -4.022649765014649 470.2815 3.0
    vertex -7.981495380401611 470.2815 1.9000000953674316
  endloop
endfacet
facet normal 0.0 1.0 0.0
  outer loop
    vertex -4.484529972076417 470.2815 3.7999999523162837
    vertex -4.022649765014649 470.2815 3.0
    vertex -6.8845300674438485 470.2815 3.7999999523162837
  endloop
endfacet
facet normal 1.8605771555995796e-10 -7.300407356245213e-11 1.0
  outer loop
    vertex 0.991859982357626 470.517553150432 2.9999999998326894
    vertex -6.973432642760308e-08 470.2815 3.0
    vertex 1.9999998814548487 466.2814999999999 2.999999999335868
  endloop
endfacet
facet normal 0.7071070024906151 -0.7071065598824091 4.691924307414136e-08
  outer loop
    vertex 46.250733251348464 397.2208369127713 1.481176749210111e-07
    vertex 44.695280489809974 395.66538337667 3.000000114618105
    vertex 44.31139755249022 395.2815 1.3723813280589547e-07
  endloop
endfacet
facet normal 0.6573346372692129 -0.7535988154490108 -6.738243721919889e-17
  outer loop
    vertex 42.01850509643554 393.2815 1.431751428526695e-07
    vertex 44.31139755249022 395.2815 1.3723813280589547e-07
    vertex 42.01850509643554 393.2815 3.000000238418579
  endloop
endfacet
facet normal 0.6650327831573427 -0.7467409714208044 0.010455569210338153
  outer loop
    vertex 44.31139755249022 395.2815 1.3723813280589547e-07
    vertex 44.695280489809974 395.66538337667 3.000000114618105
    vertex 42.01850509643554 393.2815 3.000000238418579
  endloop
endfacet
facet normal -0.8089101406632293 0.5879322957043562 1.1075029141439619e-10
  outer loop
    vertex 43.01850509643554 503.2814999999999 7.996830220236006e-08
    vertex 42.55814900736315 502.64811634107053 7.996830149736844e-08
    vertex 43.0185050965746 503.2814999998145 3.0000000000309055
  endloop
endfacet
facet normal -0.8089101406632293 0.5879322957043562 1.1075029141439619e-10
  outer loop
    vertex 42.55814900764127 502.64811634069963 3.000000000061811
    vertex 43.0185050965746 503.2814999998145 3.0000000000309055
    vertex 42.55814900736315 502.64811634107053 7.996830149736844e-08
  endloop
endfacet
facet normal 0.7071074079629982 0.7071061544094255 -4.0487333644553396e-07
  outer loop
    vertex 44.01850509643554 503.2814999999999 7.996830220236006e-08
    vertex 44.01850509643554 503.2814999999999 3.0
    vertex 46.250733251348464 501.0492670885524 8.580279277775605e-08
  endloop
endfacet
facet normal 0.7071074079629982 0.7071061544094255 -4.0487333644553396e-07
  outer loop
    vertex 44.695280489809974 502.6047260430555 2.9999999989848605
    vertex 46.250733251348464 501.0492670885524 8.580279277775605e-08
    vertex 44.01850509643554 503.2814999999999 3.0
  endloop
endfacet
facet normal -1.0 0.0 0.0
  outer loop
    vertex 42.01850509643554 394.28149999999994 3.000000245990105
    vertex 42.01850509643554 394.28149999999994 1.446841336005597e-07
    vertex 42.01850509643554 393.2815 3.000000238418579
  endloop
endfacet
facet normal -1.0 0.0 0.0
  outer loop
    vertex 42.01850509643554 393.2815 1.431751428526695e-07
    vertex 42.01850509643554 393.2815 3.000000238418579
    vertex 42.01850509643554 394.28149999999994 1.446841336005597e-07
  endloop
endfacet
facet normal -0.9486832980505135 0.3162277660168388 -3.3841856446213063e-25
  outer loop
    vertex 44.01850509643554 400.28149999999994 3.000000245990105
    vertex 44.01850509643554 400.28149999999994 1.4578450850286723e-07
    vertex 42.01850509643554 394.28149999999994 3.000000245990105
  endloop
endfacet
facet normal -0.9486832980505135 0.3162277660168388 -3.3841856446213063e-25
  outer loop
    vertex 42.01850509643554 394.28149999999994 1.446841336005597e-07
    vertex 42.01850509643554 394.28149999999994 3.000000245990105
    vertex 44.01850509643554 400.28149999999994 1.4578450850286723e-07
  endloop
endfacet
facet normal -0.7071067811865426 0.7071067811865525 4.292705983687393e-23
  outer loop
    vertex 44.01850509643554 482.28149999999994 7.34786847422786e-08
    vertex 42.01850509643554 480.28149999999994 9.271925992701751e-08
    vertex 44.01850509643554 482.28149999999994 2.9999999729221507
  endloop
endfacet
facet normal -0.7071067811865426 0.7071067811865525 4.292705983687393e-23
  outer loop
    vertex 42.01850509643554 480.28149999999994 2.999999992912178
    vertex 44.01850509643554 482.28149999999994 2.9999999729221507
    vertex 42.01850509643554 480.28149999999994 9.271925992701751e-08
  endloop
endfacet
facet normal -1.0 2.4233151118443695e-12 3.090244703141447e-11
  outer loop
    vertex 44.01850509643554 499.2814999999999 7.935024339663801e-08
    vertex 44.01850509643554 482.28149999999994 7.34786847422786e-08
    vertex 44.01850509671366 499.2814999996291 2.9999999994437525
  endloop
endfacet
facet normal -1.0 2.4233151118443695e-12 3.090244703141447e-11
  outer loop
    vertex 44.01850509643554 482.28149999999994 2.9999999729221507
    vertex 44.01850509671366 499.2814999996291 2.9999999994437525
    vertex 44.01850509643554 482.28149999999994 7.34786847422786e-08
  endloop
endfacet
facet normal -0.7071067811865466 -0.7071067811865486 -7.223303363520849e-25
  outer loop
    vertex 42.018505097099684 476.2814999999999 1.0312776512120895e-07
    vertex 44.018505097099684 474.28149999999994 1.065337659359297e-07
    vertex 42.018505097099684 476.2814999999999 2.999999999335868
  endloop
endfacet
facet normal -0.7071067811865466 -0.7071067811865486 -7.223303363520849e-25
  outer loop
    vertex 44.018505097099684 474.28149999999994 2.999999999335868
    vertex 42.018505097099684 476.2814999999999 2.999999999335868
    vertex 44.018505097099684 474.28149999999994 1.065337659359297e-07
  endloop
endfacet
facet normal 0.5547002032928016 -0.8320502896261288 2.604951345757991e-10
  outer loop
    vertex -1.000000061094215 464.28150000055325 7.344408183483442e-08
    vertex 1.9999998814548487 466.2814999999999 7.493345778795758e-08
    vertex -1.0000000639119004 464.28150000055325 2.999999998396644
  endloop
endfacet
facet normal 0.5547002032928016 -0.8320502896261288 2.604951345757991e-10
  outer loop
    vertex 1.9999998814548487 466.2814999999999 2.999999999335868
    vertex -1.0000000639119004 464.28150000055325 2.999999998396644
    vertex 1.9999998814548487 466.2814999999999 7.493345778795758e-08
  endloop
endfacet
facet normal 0.2424300654679399 -0.9701688839357869 8.472074881872478e-18
  outer loop
    vertex 1.9999998814548487 466.2814999999999 7.493345778795758e-08
    vertex 42.018505097099684 476.2814999999999 1.0312776512120895e-07
    vertex 1.9999998814548487 466.2814999999999 2.999999999335868
  endloop
endfacet
facet normal 0.2424300654679399 -0.9701688839357869 8.472074881872478e-18
  outer loop
    vertex 42.018505097099684 476.2814999999999 2.999999999335868
    vertex 1.9999998814548487 466.2814999999999 2.999999999335868
    vertex 42.018505097099684 476.2814999999999 1.0312776512120895e-07
  endloop
endfacet
facet normal -0.7071067811865466 0.7071067811865486 -1.67683829269627e-25
  outer loop
    vertex 42.01850509643553 419.28149999999994 1.1574635294664405e-07
    vertex 42.01850509643553 419.28149999999994 3.0
    vertex 44.01850509643553 421.28149999999994 1.1649581210804173e-07
  endloop
endfacet
facet normal -0.7071067811865466 0.7071067811865486 -1.67683829269627e-25
  outer loop
    vertex 44.01850509643553 421.28149999999994 3.0
    vertex 44.01850509643553 421.28149999999994 1.1649581210804173e-07
    vertex 42.01850509643553 419.28149999999994 3.0
  endloop
endfacet
facet normal -0.6832842448533977 -0.730152477729907 -2.6910344088561997e-11
  outer loop
    vertex 44.01850509643554 499.2814999999999 7.935024339663801e-08
    vertex 44.01850509671366 499.2814999996291 2.9999999994437525
    vertex 42.55814900736315 500.64811634107053 7.996830149736844e-08
  endloop
endfacet
facet normal -0.6832842448533977 -0.730152477729907 -2.6910344088561997e-11
  outer loop
    vertex 42.55814900764127 500.64811634069974 3.000000000061811
    vertex 42.55814900736315 500.64811634107053 7.996830149736844e-08
    vertex 44.01850509671366 499.2814999996291 2.9999999994437525
  endloop
endfacet
facet normal -9.270921807976731e-11 1.0 3.0903073519319e-11
  outer loop
    vertex 44.01850509643554 503.2814999999999 7.996830220236006e-08
    vertex 43.01850509643554 503.2814999999999 7.996830220236006e-08
    vertex 44.01850509643554 503.2814999999999 3.0
  endloop
endfacet
facet normal -9.270921807976731e-11 1.0 3.0903073519319e-11
  outer loop
    vertex 43.0185050965746 503.2814999998145 3.0000000000309055
    vertex 44.01850509643554 503.2814999999999 3.0
    vertex 43.01850509643554 503.2814999999999 7.996830220236006e-08
  endloop
endfacet
facet normal -1.0 4.9123304295350174e-27 9.270734057189572e-11
  outer loop
    vertex 42.55814900736315 502.64811634107053 7.996830149736844e-08
    vertex 42.55814900736315 500.64811634107053 7.996830149736844e-08
    vertex 42.55814900764127 502.64811634069963 3.000000000061811
  endloop
endfacet
facet normal -1.0 4.9123304295350174e-27 9.270734057189572e-11
  outer loop
    vertex 42.55814900764127 500.64811634069974 3.000000000061811
    vertex 42.55814900764127 502.64811634069963 3.000000000061811
    vertex 42.55814900736315 500.64811634107053 7.996830149736844e-08
  endloop
endfacet
facet normal -0.23152398948333855 0.972829194819789 -1.940154276983398e-16
  outer loop
    vertex -6.973432633085505e-08 470.2815 6.907323509026169e-08
    vertex -6.973432642760308e-08 470.2815 3.0
    vertex 42.01850509643554 480.28149999999994 9.271925992701751e-08
  endloop
endfacet
facet normal -0.23152398948333855 0.972829194819789 -1.940154276983398e-16
  outer loop
    vertex 0.991859982357626 470.517553150432 2.9999999998326894
    vertex 42.01850509643554 480.28149999999994 9.271925992701751e-08
    vertex -6.973432642760308e-08 470.2815 3.0
  endloop
endfacet
facet normal -0.23152398948333855 0.972829194819789 -1.940154276983398e-16
  outer loop
    vertex 42.01850509643554 480.28149999999994 2.999999992912178
    vertex 42.01850509643554 480.28149999999994 9.271925992701751e-08
    vertex 0.991859982357626 470.517553150432 2.9999999998326894
  endloop
endfacet
facet normal 0.5547002023150913 0.8320502902779355 2.604925200794875e-10
  outer loop
    vertex -1.000000071056303 446.28150000055325 8.34060713397755e-08
    vertex -1.000000073775376 446.28150000070156 0.3999999990607756
    vertex 1.9999998807907087 444.28149999999994 8.755205271882004e-08
  endloop
endfacet
facet normal 0.5547002023150913 0.8320502902779355 2.604925200794875e-10
  outer loop
    vertex 1.9999998807907087 444.28149999999994 3.0
    vertex 1.9999998807907087 444.28149999999994 8.755205271882004e-08
    vertex -1.000000073775376 446.28150000070156 0.3999999990607756
  endloop
endfacet
facet normal 0.5547002023150913 0.8320502902779355 2.604925200794875e-10
  outer loop
    vertex -1.0000000738739605 446.28150000055325 2.9999999990607757
    vertex 1.9999998807907087 444.28149999999994 3.0
    vertex -1.000000073775376 446.28150000070156 0.3999999990607756
  endloop
endfacet
facet normal 1.2632364718646592e-10 -9.145238144619464e-11 1.0
  outer loop
    vertex -3.400000095367433 468.2773190917968 3.0
    vertex -4.022649765014649 463.08567633056634 2.999999999845712
    vertex -3.400000095367433 463.08567633056634 3.0
  endloop
endfacet
facet normal 1.2632364718646592e-10 -9.145238144619464e-11 1.0
  outer loop
    vertex -4.022649765014649 463.08567633056634 2.999999999845712
    vertex -3.400000095367433 468.2773190917968 3.0
    vertex -4.022649765014649 470.2815 3.0
  endloop
endfacet
facet normal 1.2632364718646592e-10 -9.145238144619464e-11 1.0
  outer loop
    vertex -6.973432642760308e-08 470.2815 3.0
    vertex -4.022649765014649 470.2815 3.0
    vertex -3.400000095367433 468.2773190917968 3.0
  endloop
endfacet
facet normal 1.2632364718646592e-10 -9.145238144619464e-11 1.0
  outer loop
    vertex -1.0000001192092909 468.2773190917968 3.0
    vertex -6.973432642760308e-08 470.2815 3.0
    vertex -3.400000095367433 468.2773190917968 3.0
  endloop
endfacet
facet normal 1.2632364718646592e-10 -9.145238144619464e-11 1.0
  outer loop
    vertex -1.0000000639119004 464.28150000055325 2.999999998396644
    vertex -6.973432642760308e-08 470.2815 3.0
    vertex -1.0000001192092909 468.2773190917968 3.0
  endloop
endfacet
facet normal 1.2632364718646592e-10 -9.145238144619464e-11 1.0
  outer loop
    vertex 1.9999998814548487 466.2814999999999 2.999999999335868
    vertex -6.973432642760308e-08 470.2815 3.0
    vertex -1.0000000639119004 464.28150000055325 2.999999998396644
  endloop
endfacet
facet normal -0.7071067811865307 -0.7071067811865644 -2.1982668436060676e-17
  outer loop
    vertex 42.01850509643554 415.2814999999998 1.1973118319019702e-07
    vertex 44.01850509643554 413.28149999999994 1.2313716979406308e-07
    vertex 42.01850509643554 415.2814999999998 3.000000238418579
  endloop
endfacet
facet normal -0.7071067811865307 -0.7071067811865644 -2.1982668436060676e-17
  outer loop
    vertex 44.01850509643554 413.28149999999994 3.000000238418579
    vertex 42.01850509643554 415.2814999999998 3.000000238418579
    vertex 44.01850509643554 413.28149999999994 1.2313716979406308e-07
  endloop
endfacet
facet normal -1.0 0.0 0.0
  outer loop
    vertex 44.01850509643554 413.28149999999994 3.000000238418579
    vertex 44.01850509643554 413.28149999999994 1.2313716979406308e-07
    vertex 44.01850509643554 400.28149999999994 3.000000245990105
  endloop
endfacet
facet normal -1.0 0.0 0.0
  outer loop
    vertex 44.01850509643554 400.28149999999994 1.4578450850286723e-07
    vertex 44.01850509643554 400.28149999999994 3.000000245990105
    vertex 44.01850509643554 413.28149999999994 1.2313716979406308e-07
  endloop
endfacet
facet normal -8.793861550976907e-10 1.5037676655586088e-09 1.0
  outer loop
    vertex -4.02264976501465 448.29659982565636 2.99999999905723
    vertex -4.022649765014649 440.28149999999994 3.0
    vertex -1.0000000738739605 446.28150000055325 2.9999999990607757
  endloop
endfacet
facet normal -8.793861550976907e-10 1.5037676655586088e-09 1.0
  outer loop
    vertex -8.965850162816797e-08 440.28149999999994 3.000000020830807
    vertex -1.0000000738739605 446.28150000055325 2.9999999990607757
    vertex -4.022649765014649 440.28149999999994 3.0
  endloop
endfacet
facet normal -8.793861550976907e-10 1.5037676655586088e-09 1.0
  outer loop
    vertex 1.9999998807907087 444.28149999999994 3.0
    vertex -1.0000000738739605 446.28150000055325 2.9999999990607757
    vertex -8.965850162816797e-08 440.28149999999994 3.000000020830807
  endloop
endfacet
facet normal -3.7917090588769987e-11 -5.701194658336461e-11 1.0
  outer loop
    vertex -4.022649764916066 448.2965998258046 0.39999999905723016
    vertex -1.000000073775376 446.28150000070156 0.3999999990607756
    vertex -4.022649764916065 463.08567633071453 0.39999999984571183
  endloop
endfacet
facet normal -3.7917090588769987e-11 -5.701194658336461e-11 1.0
  outer loop
    vertex -3.4000000952688483 463.08567633071453 0.39999999999999963
    vertex -4.022649764916065 463.08567633071453 0.39999999984571183
    vertex -1.000000073775376 446.28150000070156 0.3999999990607756
  endloop
endfacet
facet normal -3.7917090588769987e-11 -5.701194658336461e-11 1.0
  outer loop
    vertex -1.0000001191107066 463.08567633071453 0.39999999999999963
    vertex -3.4000000952688483 463.08567633071453 0.39999999999999963
    vertex -1.000000073775376 446.28150000070156 0.3999999990607756
  endloop
endfacet
facet normal 1.0 -4.7671774321646115e-17 3.7917090588769987e-11
  outer loop
    vertex -4.022649764916065 463.08567633071453 0.39999999984571183
    vertex -4.022649765014649 463.08567633056634 2.999999999845712
    vertex -4.022649764916066 448.2965998258046 0.39999999905723016
  endloop
endfacet
facet normal 1.0 -4.7671774321646115e-17 3.7917090588769987e-11
  outer loop
    vertex -4.02264976501465 448.29659982565636 2.99999999905723
    vertex -4.022649764916066 448.2965998258046 0.39999999905723016
    vertex -4.022649765014649 463.08567633056634 2.999999999845712
  endloop
endfacet
facet normal 1.4127119076431032e-20 -1.0 -5.7011946583364614e-11
  outer loop
    vertex -4.022649764916065 463.08567633071453 0.39999999984571183
    vertex -3.4000000952688483 463.08567633071453 0.39999999999999963
    vertex -4.022649765014649 463.08567633056634 2.999999999845712
  endloop
endfacet
facet normal 1.4127119076431032e-20 -1.0 -5.7011946583364614e-11
  outer loop
    vertex -3.400000095367433 463.08567633056634 3.0
    vertex -4.022649765014649 463.08567633056634 2.999999999845712
    vertex -3.4000000952688483 463.08567633071453 0.39999999999999963
  endloop
endfacet
facet normal 0.0 -1.0 -5.701194658336461e-11
  outer loop
    vertex -3.4000000952688483 463.08567633071453 0.39999999999999963
    vertex -1.0000001191107066 463.08567633071453 0.39999999999999963
    vertex -3.400000095367433 463.08567633056634 3.0
  endloop
endfacet
facet normal 0.0 -1.0 -5.701194658336461e-11
  outer loop
    vertex -1.0000001192092909 463.08567633056634 3.0
    vertex -3.400000095367433 463.08567633056634 3.0
    vertex -1.0000001191107066 463.08567633071453 0.39999999999999963
  endloop
endfacet
facet normal 0.5547002021347535 0.8320502903981607 6.846942452480541e-11
  outer loop
    vertex -4.022649764916066 448.2965998258046 0.39999999905723016
    vertex -4.02264976501465 448.29659982565636 2.99999999905723
    vertex -1.000000073775376 446.28150000070156 0.3999999990607756
  endloop
endfacet
facet normal 0.5547002021347535 0.8320502903981607 6.846942452480541e-11
  outer loop
    vertex -1.0000000738739605 446.28150000055325 2.9999999990607757
    vertex -1.000000073775376 446.28150000070156 0.3999999990607756
    vertex -4.02264976501465 448.29659982565636 2.99999999905723
  endloop
endfacet
facet normal 6.323571591082774e-10 -5.894025747488474e-10 -1.0
  outer loop
    vertex 42.01850509643554 393.2815 1.431751428526695e-07
    vertex 42.01850509643554 394.28149999999994 1.446841336005597e-07
    vertex 44.31139755249022 395.2815 1.3723813280589547e-07
  endloop
endfacet
facet normal 6.323571591082774e-10 -5.894025747488474e-10 -1.0
  outer loop
    vertex 44.01850509643554 400.28149999999994 1.4578450850286723e-07
    vertex 44.31139755249022 395.2815 1.3723813280589547e-07
    vertex 42.01850509643554 394.28149999999994 1.446841336005597e-07
  endloop
endfacet
facet normal 6.323571591082774e-10 -5.894025747488474e-10 -1.0
  outer loop
    vertex 44.01850509643554 413.28149999999994 1.2313716979406308e-07
    vertex 44.31139755249022 395.2815 1.3723813280589547e-07
    vertex 44.01850509643554 400.28149999999994 1.4578450850286723e-07
  endloop
endfacet
facet normal 6.323571591082774e-10 -5.894025747488474e-10 -1.0
  outer loop
    vertex 44.018505097099684 474.28149999999994 1.065337659359297e-07
    vertex 44.31139755249022 395.2815 1.3723813280589547e-07
    vertex 44.01850509643554 413.28149999999994 1.2313716979406308e-07
  endloop
endfacet
facet normal 6.323571591082774e-10 -5.894025747488474e-10 -1.0
  outer loop
    vertex -6.973432633085505e-08 470.2815 6.907323509026169e-08
    vertex -1.000000061094215 464.28150000055325 7.344408183483442e-08
    vertex -6.8845300674438485 470.2815 6.326817469926027e-08
  endloop
endfacet
facet normal 6.323571591082774e-10 -5.894025747488474e-10 -1.0
  outer loop
    vertex -1.000000071056303 446.28150000055325 8.34060713397755e-08
    vertex -6.8845300674438485 470.2815 6.326817469926027e-08
    vertex -1.000000061094215 464.28150000055325 7.344408183483442e-08
  endloop
endfacet
facet normal 6.323571591082774e-10 -5.894025747488474e-10 -1.0
  outer loop
    vertex 1.9999998814548487 466.2814999999999 7.493345778795758e-08
    vertex -1.000000061094215 464.28150000055325 7.344408183483442e-08
    vertex -6.973432633085505e-08 470.2815 6.907323509026169e-08
  endloop
endfacet
facet normal 6.323571591082774e-10 -5.894025747488474e-10 -1.0
  outer loop
    vertex 42.01850509643554 480.28149999999994 9.271925992701751e-08
    vertex 1.9999998814548487 466.2814999999999 7.493345778795758e-08
    vertex -6.973432633085505e-08 470.2815 6.907323509026169e-08
  endloop
endfacet
facet normal 6.323571591082774e-10 -5.894025747488474e-10 -1.0
  outer loop
    vertex 42.018505097099684 476.2814999999999 1.0312776512120895e-07
    vertex 1.9999998814548487 466.2814999999999 7.493345778795758e-08
    vertex 42.01850509643554 480.28149999999994 9.271925992701751e-08
  endloop
endfacet
facet normal 6.323571591082774e-10 -5.894025747488474e-10 -1.0
  outer loop
    vertex 44.01850509643554 482.28149999999994 7.34786847422786e-08
    vertex 42.018505097099684 476.2814999999999 1.0312776512120895e-07
    vertex 42.01850509643554 480.28149999999994 9.271925992701751e-08
  endloop
endfacet
facet normal 6.323571591082774e-10 -5.894025747488474e-10 -1.0
  outer loop
    vertex 44.018505097099684 474.28149999999994 1.065337659359297e-07
    vertex 42.018505097099684 476.2814999999999 1.0312776512120895e-07
    vertex 44.01850509643554 482.28149999999994 7.34786847422786e-08
  endloop
endfacet
facet normal 6.323571591082774e-10 -5.894025747488474e-10 -1.0
  outer loop
    vertex 44.01850509643554 499.2814999999999 7.935024339663801e-08
    vertex 44.018505097099684 474.28149999999994 1.065337659359297e-07
    vertex 44.01850509643554 482.28149999999994 7.34786847422786e-08
  endloop
endfacet
facet normal 6.323571591082774e-10 -5.894025747488474e-10 -1.0
  outer loop
    vertex 44.01850509643554 503.2814999999999 7.996830220236006e-08
    vertex 44.018505097099684 474.28149999999994 1.065337659359297e-07
    vertex 44.01850509643554 499.2814999999999 7.935024339663801e-08
  endloop
endfacet
facet normal 6.323571591082774e-10 -5.894025747488474e-10 -1.0
  outer loop
    vertex 46.250733251348464 501.0492670885524 8.580279277775605e-08
    vertex 44.018505097099684 474.28149999999994 1.065337659359297e-07
    vertex 44.01850509643554 503.2814999999999 7.996830220236006e-08
  endloop
endfacet
facet normal 6.323571591082774e-10 -5.894025747488474e-10 -1.0
  outer loop
    vertex 44.31139755249022 395.2815 1.3723813280589547e-07
    vertex 44.018505097099684 474.28149999999994 1.065337659359297e-07
    vertex 46.250733251348464 501.0492670885524 8.580279277775605e-08
  endloop
endfacet
facet normal 6.323571591082774e-10 -5.894025747488474e-10 -1.0
  outer loop
    vertex 46.250733251348464 397.2208369127713 1.481176749210111e-07
    vertex 44.31139755249022 395.2815 1.3723813280589547e-07
    vertex 46.250733251348464 501.0492670885524 8.580279277775605e-08
  endloop
endfacet
facet normal 6.323571591082774e-10 -5.894025747488474e-10 -1.0
  outer loop
    vertex 42.55814900736315 500.64811634107053 7.996830149736844e-08
    vertex 42.55814900736315 502.64811634107053 7.996830149736844e-08
    vertex 44.01850509643554 499.2814999999999 7.935024339663801e-08
  endloop
endfacet
facet normal 6.323571591082774e-10 -5.894025747488474e-10 -1.0
  outer loop
    vertex 43.01850509643554 503.2814999999999 7.996830220236006e-08
    vertex 44.01850509643554 499.2814999999999 7.935024339663801e-08
    vertex 42.55814900736315 502.64811634107053 7.996830149736844e-08
  endloop
endfacet
facet normal 6.323571591082774e-10 -5.894025747488474e-10 -1.0
  outer loop
    vertex 44.01850509643554 503.2814999999999 7.996830220236006e-08
    vertex 44.01850509643554 499.2814999999999 7.935024339663801e-08
    vertex 43.01850509643554 503.2814999999999 7.996830220236006e-08
  endloop
endfacet
facet normal 6.323571591082774e-10 -5.894025747488474e-10 -1.0
  outer loop
    vertex -6.8845300674438485 440.28149999999994 8.319226907360643e-08
    vertex -6.8845300674438485 470.2815 6.326817469926027e-08
    vertex -8.965850246598984e-08 440.28149999999994 8.899727209883275e-08
  endloop
endfacet
facet normal 6.323571591082774e-10 -5.894025747488474e-10 -1.0
  outer loop
    vertex -1.000000071056303 446.28150000055325 8.34060713397755e-08
    vertex -8.965850246598984e-08 440.28149999999994 8.899727209883275e-08
    vertex -6.8845300674438485 470.2815 6.326817469926027e-08
  endloop
endfacet
facet normal 6.323571591082774e-10 -5.894025747488474e-10 -1.0
  outer loop
    vertex 1.9999998807907087 444.28149999999994 8.755205271882004e-08
    vertex -8.965850246598984e-08 440.28149999999994 8.899727209883275e-08
    vertex -1.000000071056303 446.28150000055325 8.34060713397755e-08
  endloop
endfacet
facet normal 6.323571591082774e-10 -5.894025747488474e-10 -1.0
  outer loop
    vertex 42.01850509643554 415.2814999999998 1.1973118319019702e-07
    vertex -8.965850246598984e-08 440.28149999999994 8.899727209883275e-08
    vertex 1.9999998807907087 444.28149999999994 8.755205271882004e-08
  endloop
endfacet
facet normal 6.323571591082774e-10 -5.894025747488474e-10 -1.0
  outer loop
    vertex 42.01850509643553 419.28149999999994 1.1574635294664405e-07
    vertex 42.01850509643554 415.2814999999998 1.1973118319019702e-07
    vertex 1.9999998807907087 444.28149999999994 8.755205271882004e-08
  endloop
endfacet
facet normal 6.323571591082774e-10 -5.894025747488474e-10 -1.0
  outer loop
    vertex 44.01850509643553 421.28149999999994 1.1649581210804173e-07
    vertex 42.01850509643554 415.2814999999998 1.1973118319019702e-07
    vertex 42.01850509643553 419.28149999999994 1.1574635294664405e-07
  endloop
endfacet
facet normal 6.323571591082774e-10 -5.894025747488474e-10 -1.0
  outer loop
    vertex 44.01850509643554 413.28149999999994 1.2313716979406308e-07
    vertex 42.01850509643554 415.2814999999998 1.1973118319019702e-07
    vertex 44.01850509643553 421.28149999999994 1.1649581210804173e-07
  endloop
endfacet
facet normal 6.323571591082774e-10 -5.894025747488474e-10 -1.0
  outer loop
    vertex 44.018505097099684 474.28149999999994 1.065337659359297e-07
    vertex 44.01850509643554 413.28149999999994 1.2313716979406308e-07
    vertex 44.01850509643553 421.28149999999994 1.1649581210804173e-07
  endloop
endfacet
facet normal -1.5418076085625083e-09 1.9468206796413637e-09 1.0
  outer loop
    vertex 0.991859982357626 440.045446844938 3.000000016906842
    vertex 42.01850509643554 415.2814999999998 3.000000238418579
    vertex 1.9999998807907087 444.28149999999994 3.0
  endloop
endfacet
facet normal -1.5418076085625083e-09 1.9468206796413637e-09 1.0
  outer loop
    vertex 42.01850509643553 419.28149999999994 3.0
    vertex 1.9999998807907087 444.28149999999994 3.0
    vertex 42.01850509643554 415.2814999999998 3.000000238418579
  endloop
endfacet
facet normal -1.5418076085625083e-09 1.9468206796413637e-09 1.0
  outer loop
    vertex 44.01850509643553 421.28149999999994 3.0
    vertex 42.01850509643553 419.28149999999994 3.0
    vertex 42.01850509643554 415.2814999999998 3.000000238418579
  endloop
endfacet
facet normal -1.5418076085625083e-09 1.9468206796413637e-09 1.0
  outer loop
    vertex 44.01850509643554 413.28149999999994 3.000000238418579
    vertex 44.01850509643553 421.28149999999994 3.0
    vertex 42.01850509643554 415.2814999999998 3.000000238418579
  endloop
endfacet
facet normal -1.5418076085625083e-09 1.9468206796413637e-09 1.0
  outer loop
    vertex 44.018505097099684 474.28149999999994 2.999999999335868
    vertex 44.01850509643553 421.28149999999994 3.0
    vertex 44.01850509643554 413.28149999999994 3.000000238418579
  endloop
endfacet
facet normal -1.5418076085625083e-09 1.9468206796413637e-09 1.0
  outer loop
    vertex 44.01850509643554 400.28149999999994 3.000000245990105
    vertex 44.018505097099684 474.28149999999994 2.999999999335868
    vertex 44.01850509643554 413.28149999999994 3.000000238418579
  endloop
endfacet
facet normal -1.5418076085625083e-09 1.9468206796413637e-09 1.0
  outer loop
    vertex 42.55814900764127 502.64811634069963 3.000000000061811
    vertex 42.55814900764127 500.64811634069974 3.000000000061811
    vertex 43.0185050965746 503.2814999998145 3.0000000000309055
  endloop
endfacet
facet normal -1.5418076085625083e-09 1.9468206796413637e-09 1.0
  outer loop
    vertex 44.01850509671366 499.2814999996291 2.9999999994437525
    vertex 43.0185050965746 503.2814999998145 3.0000000000309055
    vertex 42.55814900764127 500.64811634069974 3.000000000061811
  endloop
endfacet
facet normal -1.5418076085625083e-09 1.9468206796413637e-09 1.0
  outer loop
    vertex 44.01850509643554 503.2814999999999 3.0
    vertex 43.0185050965746 503.2814999998145 3.0000000000309055
    vertex 44.01850509671366 499.2814999996291 2.9999999994437525
  endloop
endfacet
facet normal -1.5418076085625083e-09 1.9468206796413637e-09 1.0
  outer loop
    vertex 44.695280489809974 502.6047260430555 2.9999999989848605
    vertex 44.01850509643554 503.2814999999999 3.0
    vertex 44.01850509671366 499.2814999996291 2.9999999994437525
  endloop
endfacet
facet normal -1.5418076085625083e-09 1.9468206796413637e-09 1.0
  outer loop
    vertex 44.018505097099684 474.28149999999994 2.999999999335868
    vertex 44.695280489809974 502.6047260430555 2.9999999989848605
    vertex 44.01850509671366 499.2814999996291 2.9999999994437525
  endloop
endfacet
facet normal -1.5418076085625083e-09 1.9468206796413637e-09 1.0
  outer loop
    vertex 42.01850509643554 394.28149999999994 3.000000245990105
    vertex 42.01850509643554 393.2815 3.000000238418579
    vertex 44.01850509643554 400.28149999999994 3.000000245990105
  endloop
endfacet
facet normal -1.5418076085625083e-09 1.9468206796413637e-09 1.0
  outer loop
    vertex 44.695280489809974 395.66538337667 3.000000114618105
    vertex 44.01850509643554 400.28149999999994 3.000000245990105
    vertex 42.01850509643554 393.2815 3.000000238418579
  endloop
endfacet
facet normal -1.5418076085625083e-09 1.9468206796413637e-09 1.0
  outer loop
    vertex 44.018505097099684 474.28149999999994 2.999999999335868
    vertex 44.01850509643554 400.28149999999994 3.000000245990105
    vertex 44.695280489809974 395.66538337667 3.000000114618105
  endloop
endfacet
facet normal -1.5418076085625083e-09 1.9468206796413637e-09 1.0
  outer loop
    vertex 44.695280489809974 502.6047260430555 2.9999999989848605
    vertex 44.018505097099684 474.28149999999994 2.999999999335868
    vertex 44.695280489809974 395.66538337667 3.000000114618105
  endloop
endfacet
facet normal -1.5418076085625083e-09 1.9468206796413637e-09 1.0
  outer loop
    vertex 0.991859982357626 470.517553150432 2.9999999998326894
    vertex 1.9999998814548487 466.2814999999999 2.999999999335868
    vertex 42.01850509643554 480.28149999999994 2.999999992912178
  endloop
endfacet
facet normal -1.5418076085625083e-09 1.9468206796413637e-09 1.0
  outer loop
    vertex 42.018505097099684 476.2814999999999 2.999999999335868
    vertex 42.01850509643554 480.28149999999994 2.999999992912178
    vertex 1.9999998814548487 466.2814999999999 2.999999999335868
  endloop
endfacet
facet normal -1.5418076085625083e-09 1.9468206796413637e-09 1.0
  outer loop
    vertex 44.01850509643554 482.28149999999994 2.9999999729221507
    vertex 42.01850509643554 480.28149999999994 2.999999992912178
    vertex 42.018505097099684 476.2814999999999 2.999999999335868
  endloop
endfacet
facet normal -1.5418076085625083e-09 1.9468206796413637e-09 1.0
  outer loop
    vertex 44.018505097099684 474.28149999999994 2.999999999335868
    vertex 44.01850509643554 482.28149999999994 2.9999999729221507
    vertex 42.018505097099684 476.2814999999999 2.999999999335868
  endloop
endfacet
facet normal -1.5418076085625083e-09 1.9468206796413637e-09 1.0
  outer loop
    vertex 44.01850509671366 499.2814999996291 2.9999999994437525
    vertex 44.01850509643554 482.28149999999994 2.9999999729221507
    vertex 44.018505097099684 474.28149999999994 2.999999999335868
  endloop
endfacet
facet normal 0.8877669580547117 3.9025241237012227e-10 0.4602931980664972
  outer loop
    vertex 44.695280489809974 502.6047260430555 2.9999999989848605
    vertex 44.695280489809974 395.66538337667 3.000000114618105
    vertex 46.250733251348464 501.0492670885524 8.580279277775605e-08
  endloop
endfacet
facet normal 0.8877669580547117 3.9025241237012227e-10 0.4602931980664972
  outer loop
    vertex 46.250733251348464 397.2208369127713 1.481176749210111e-07
    vertex 46.250733251348464 501.0492670885524 8.580279277775605e-08
    vertex 44.695280489809974 395.66538337667 3.000000114618105
  endloop
endfacet
facet normal 0.5298226681906076 0.8481084484141077 -3.799641740040099e-17
  outer loop
    vertex 1.9999998807907087 444.28149999999994 8.755205271882004e-08
    vertex 1.9999998807907087 444.28149999999994 3.0
    vertex 42.01850509643553 419.28149999999994 1.1574635294664405e-07
  endloop
endfacet
facet normal 0.5298226681906076 0.8481084484141077 -3.799641740040099e-17
  outer loop
    vertex 42.01850509643553 419.28149999999994 3.0
    vertex 42.01850509643553 419.28149999999994 1.1574635294664405e-07
    vertex 1.9999998807907087 444.28149999999994 3.0
  endloop
endfacet
facet normal -1.0 1.2531186151636136e-11 -6.718576232055819e-27
  outer loop
    vertex 44.018505097099684 474.28149999999994 2.999999999335868
    vertex 44.018505097099684 474.28149999999994 1.065337659359297e-07
    vertex 44.01850509643553 421.28149999999994 3.0
  endloop
endfacet
facet normal -1.0 1.2531186151636136e-11 -6.718576232055819e-27
  outer loop
    vertex 44.01850509643553 421.28149999999994 1.1649581210804173e-07
    vertex 44.01850509643553 421.28149999999994 3.0
    vertex 44.018505097099684 474.28149999999994 1.065337659359297e-07
  endloop
endfacet
facet normal -0.516764221287678 -0.8561277589220779 0.0
  outer loop
    vertex 0.991859982357626 440.045446844938 3.000000016906842
    vertex 42.01850509643554 415.2814999999998 1.1973118319019702e-07
    vertex 42.01850509643554 415.2814999999998 3.000000238418579
  endloop
endfacet
facet normal -0.5113175023089321 -0.8593918849003376 0.0
  outer loop
    vertex -8.965850246598984e-08 440.28149999999994 8.899727209883275e-08
    vertex 42.01850509643554 415.2814999999998 1.1973118319019702e-07
    vertex -8.965850162816797e-08 440.28149999999994 3.000000020830807
  endloop
endfacet
facet normal -0.046622990571171544 -0.19590285339352617 0.9795143535357077
  outer loop
    vertex 0.991859982357626 440.045446844938 3.000000016906842
    vertex -8.965850162816797e-08 440.28149999999994 3.000000020830807
    vertex 42.01850509643554 415.2814999999998 1.1973118319019702e-07
  endloop
endfacet
endsolid redo
